<?xml version="1.0" encoding="utf-8"?>
<!-- Generator: Adobe Illustrator 27.5.0, SVG Export Plug-In . SVG Version: 6.00 Build 0)  -->
<svg version="1.1" id="Layer_1" xmlns="http://www.w3.org/2000/svg" xmlns:xlink="http://www.w3.org/1999/xlink" x="0px" y="0px"
	 viewBox="0 0 7000 4000" style="enable-background:new 0 0 7000 4000;" xml:space="preserve">
<g>
	<rect x="1.661" y="1.662" style="fill-rule:evenodd;clip-rule:evenodd;fill:#EDEEEE;" width="6997.09" height="3998.337"/>
	<g>
		<defs>
			<path id="SVGID_1_" d="M4933.731,1.662c192.906,636.851,779.837,705.538,1698.006,0H4933.731z"/>
		</defs>
		<clipPath id="SVGID_00000138544509536024388420000001896477930952986297_">
			<use xlink:href="#SVGID_1_"  style="overflow:visible;"/>
		</clipPath>
		
			<linearGradient id="SVGID_00000169530053240387861820000016521133932192371633_" gradientUnits="userSpaceOnUse" x1="5898.9868" y1="829.2926" x2="5586.8018" y2="-445.8955">
			<stop  offset="0" style="stop-color:#F5F5F5"/>
			<stop  offset="0.5" style="stop-color:#F5F5F5"/>
			<stop  offset="1" style="stop-color:#34495E"/>
		</linearGradient>
		
			<rect x="4933.731" y="1.662" style="clip-path:url(#SVGID_00000138544509536024388420000001896477930952986297_);fill:url(#SVGID_00000169530053240387861820000016521133932192371633_);" width="1698.006" height="705.538"/>
	</g>
	<g>
		<defs>
			<path id="SVGID_00000070104826666870754090000005638765499336680596_" d="M1695.128,2149.622
				c460.168-60.767,645.992-65.651,446.491,843.15c-126.913,578.121,49.654,943.223,531.562,1007.229h2879.461
				c-1.963-10.538-3.861-21.224-5.691-32.058c-198.834-1175.616,337.563-2844.479-753.435-1975.043
				c-1091.003,869.437-1733.198,677.613-1826.837-248.104c-93.64-925.719-268.689-863.168-687.006-662.025
				c-418.314,201.142-889.633,1114.116-1202.907-392.888C1011.439,375.63,885.535,154.634,727.157,1.662H1.661v135.77
				c399.808,185.899,753.11,550.461,672.895,1264.006C502.606,2931.027,1234.963,2210.391,1695.128,2149.622"/>
		</defs>
		<clipPath id="SVGID_00000151518177871343586690000012583068856950035352_">
			<use xlink:href="#SVGID_00000070104826666870754090000005638765499336680596_"  style="overflow:visible;"/>
		</clipPath>
		
			<linearGradient id="SVGID_00000133516039343259151090000017838475990594624420_" gradientUnits="userSpaceOnUse" x1="8726.9297" y1="7360.8184" x2="-221.1902" y2="-931.559">
			<stop  offset="0" style="stop-color:#F5F5F5"/>
			<stop  offset="0.62" style="stop-color:#F5F5F5"/>
			<stop  offset="1" style="stop-color:#34495E"/>
		</linearGradient>
		
			<rect x="1.661" y="1.662" style="clip-path:url(#SVGID_00000151518177871343586690000012583068856950035352_);fill:url(#SVGID_00000133516039343259151090000017838475990594624420_);" width="5882.853" height="3998.337"/>
	</g>
	<g>
		<defs>
			<path id="SVGID_00000173142562055981518930000008158694061033809292_" d="M4793.516,1992.899
				c1090.998-869.435,554.6,799.427,753.435,1975.043c1.83,10.834,3.728,21.52,5.691,32.058H6998.75V2114.21
				c-705.345,341.061-1119.244,67.18-1192.983-661.789c-93.637-925.719-268.687-863.168-687.003-662.025
				c-418.316,201.143-889.63,1114.116-1202.907-392.888c-31.83-153.114-78.042-284.089-135.382-395.845H727.157
				c158.379,152.972,284.283,373.967,349.609,688.219c313.275,1507.004,784.594,594.03,1202.907,392.888
				c418.316-201.143,593.366-263.694,687.006,662.025C3060.318,2670.512,3702.513,2862.335,4793.516,1992.899"/>
		</defs>
		<clipPath id="SVGID_00000021805398884006763190000001441384486104432519_">
			<use xlink:href="#SVGID_00000173142562055981518930000008158694061033809292_"  style="overflow:visible;"/>
		</clipPath>
		
			<linearGradient id="SVGID_00000001625400911464927800000002567674858237355430_" gradientUnits="userSpaceOnUse" x1="6339.1079" y1="6646.4302" x2="2193.0781" y2="-1132.0801">
			<stop  offset="0" style="stop-color:#F5F5F5"/>
			<stop  offset="0.66" style="stop-color:#F5F5F5"/>
			<stop  offset="1" style="stop-color:#34495E"/>
		</linearGradient>
		
			<rect x="727.157" y="1.662" style="clip-path:url(#SVGID_00000021805398884006763190000001441384486104432519_);fill:url(#SVGID_00000001625400911464927800000002567674858237355430_);" width="6271.594" height="3998.337"/>
	</g>
	<g>
		<defs>
			<path id="SVGID_00000087397772695864824420000006213719214323509154_" d="M5805.768,1452.42
				c73.739,728.97,487.638,1002.851,1192.983,661.789V1.662h-367.014c-918.169,705.538-1505.1,636.851-1698.006,0H3780.475
				c57.34,111.756,103.552,242.731,135.382,395.845c313.277,1507.004,784.591,594.031,1202.907,392.888
				C5537.081,589.252,5712.13,526.702,5805.768,1452.42"/>
		</defs>
		<clipPath id="SVGID_00000176024906519828315360000001389631739633646010_">
			<use xlink:href="#SVGID_00000087397772695864824420000006213719214323509154_"  style="overflow:visible;"/>
		</clipPath>
		
			<linearGradient id="SVGID_00000016769458494264354320000007924334235889704864_" gradientUnits="userSpaceOnUse" x1="6521.6641" y1="3183.7009" x2="3894.4111" y2="-1353.9867">
			<stop  offset="0" style="stop-color:#F5F5F5"/>
			<stop  offset="0.5" style="stop-color:#F5F5F5"/>
			<stop  offset="1" style="stop-color:#34495E"/>
		</linearGradient>
		
			<rect x="3780.475" y="1.662" style="clip-path:url(#SVGID_00000176024906519828315360000001389631739633646010_);fill:url(#SVGID_00000016769458494264354320000007924334235889704864_);" width="3218.275" height="2453.608"/>
	</g>
	<g>
		<defs>
			<path id="SVGID_00000123409890400714309280000014132369481417293469_" d="M2141.619,2992.771
				c199.501-908.801,13.677-903.917-446.491-843.15c-460.165,60.77-1192.522,781.405-1020.573-748.183
				C754.771,687.893,401.469,323.331,1.661,137.432V4000h2671.52C2191.273,3935.994,2014.706,3570.893,2141.619,2992.771"/>
		</defs>
		<clipPath id="SVGID_00000130632795152285384100000009918887533222584509_">
			<use xlink:href="#SVGID_00000123409890400714309280000014132369481417293469_"  style="overflow:visible;"/>
		</clipPath>
		
			<linearGradient id="SVGID_00000083062417386681117430000004620827377643228584_" gradientUnits="userSpaceOnUse" x1="5668.3101" y1="4068.2083" x2="-930.1431" y2="1021.8237">
			<stop  offset="0" style="stop-color:#F5F5F5"/>
			<stop  offset="0.62" style="stop-color:#F5F5F5"/>
			<stop  offset="1" style="stop-color:#34495E"/>
		</linearGradient>
		
			<rect x="1.661" y="137.432" style="clip-path:url(#SVGID_00000130632795152285384100000009918887533222584509_);fill:url(#SVGID_00000083062417386681117430000004620827377643228584_);" width="2671.52" height="3862.568"/>
	</g>
	<g>
		<defs>
			<path id="SVGID_00000160869196185297760660000009863849630561176236_" d="M2141.619,2992.771
				c199.501-908.801,13.677-903.917-446.491-843.15c-460.165,60.77-1192.522,781.405-1020.573-748.183
				C754.771,687.893,401.469,323.331,1.661,137.432V4000h2671.52C2191.273,3935.994,2014.706,3570.893,2141.619,2992.771"/>
		</defs>
		<clipPath id="SVGID_00000148619196094131473770000006069661848626345096_">
			<use xlink:href="#SVGID_00000160869196185297760660000009863849630561176236_"  style="overflow:visible;"/>
		</clipPath>
		
			<linearGradient id="SVGID_00000016793567257178524100000000901073205444323000_" gradientUnits="userSpaceOnUse" x1="4702.165" y1="4163.0693" x2="-1520.5007" y2="289.8304">
			<stop  offset="0" style="stop-color:#B5FFFF"/>
			<stop  offset="0.52" style="stop-color:#B5FFFF"/>
			<stop  offset="1" style="stop-color:#2A919B"/>
		</linearGradient>
		
			<rect x="1.661" y="137.432" style="clip-path:url(#SVGID_00000148619196094131473770000006069661848626345096_);fill:url(#SVGID_00000016793567257178524100000000901073205444323000_);" width="2671.52" height="3862.568"/>
	</g>
	<g>
		<defs>
			<path id="SVGID_00000096778567675469506820000013972200491927997327_" d="M1695.128,2149.622
				c460.168-60.767,645.992-65.651,446.491,843.15c-126.913,578.121,49.654,943.223,531.562,1007.229h2879.461
				c-1.963-10.538-3.861-21.224-5.691-32.058c-198.834-1175.616,337.563-2844.479-753.435-1975.043
				c-1091.003,869.437-1733.198,677.613-1826.837-248.104c-93.64-925.719-268.689-863.168-687.006-662.025
				c-418.314,201.142-889.633,1114.116-1202.907-392.888C1011.439,375.63,885.535,154.634,727.157,1.662H1.661v135.77
				c399.808,185.899,753.11,550.461,672.895,1264.006C502.606,2931.027,1234.963,2210.391,1695.128,2149.622"/>
		</defs>
		<clipPath id="SVGID_00000060714946528358049790000004150451693124341920_">
			<use xlink:href="#SVGID_00000096778567675469506820000013972200491927997327_"  style="overflow:visible;"/>
		</clipPath>
		
			<linearGradient id="SVGID_00000101781509763885311970000015578123765752369578_" gradientUnits="userSpaceOnUse" x1="5434.1831" y1="3430.228" x2="-62.8366" y2="276.0254">
			<stop  offset="0" style="stop-color:#B5FFFF"/>
			<stop  offset="0.53" style="stop-color:#B5FFFF"/>
			<stop  offset="1" style="stop-color:#2A919B"/>
		</linearGradient>
		
			<rect x="1.661" y="1.662" style="clip-path:url(#SVGID_00000060714946528358049790000004150451693124341920_);fill:url(#SVGID_00000101781509763885311970000015578123765752369578_);" width="5882.853" height="3998.337"/>
	</g>
	<g>
		<defs>
			<path id="SVGID_00000167393020706708907970000005987467280815860611_" d="M1076.766,689.881
				c313.275,1507.004,784.594,594.03,1202.907,392.888c418.316-201.143,593.366-263.694,687.006,662.025
				c93.64,925.718,735.834,1117.541,1826.837,248.104c1090.998-869.435,554.6,799.427,753.435,1975.043
				c1.83,10.834,3.728,21.52,5.691,32.058H6998.75V2114.21c-705.345,341.061-1119.244,67.18-1192.983-661.789
				c-93.637-925.719-268.687-863.168-687.003-662.025c-418.316,201.143-889.63,1114.116-1202.907-392.888
				c-31.83-153.114-78.042-284.089-135.382-395.845H727.157C885.535,154.634,1011.439,375.63,1076.766,689.881"/>
		</defs>
		<clipPath id="SVGID_00000140736852958115593150000017924146159853932934_">
			<use xlink:href="#SVGID_00000167393020706708907970000005987467280815860611_"  style="overflow:visible;"/>
		</clipPath>
		
			<linearGradient id="SVGID_00000170258408976827082000000009164246784423494568_" gradientUnits="userSpaceOnUse" x1="7176.3291" y1="3641.3406" x2="748.1818" y2="458.6541">
			<stop  offset="0" style="stop-color:#B5FFFF"/>
			<stop  offset="0.35" style="stop-color:#B5FFFF"/>
			<stop  offset="1" style="stop-color:#2A919B"/>
		</linearGradient>
		
			<rect x="727.157" y="1.662" style="clip-path:url(#SVGID_00000140736852958115593150000017924146159853932934_);fill:url(#SVGID_00000170258408976827082000000009164246784423494568_);" width="6271.594" height="3998.337"/>
	</g>
	<g>
		<defs>
			<path id="SVGID_00000138548866437749509930000010470879093337792675_" d="M3915.857,397.508
				c313.277,1507.004,784.591,594.031,1202.907,392.888c418.316-201.143,593.366-263.694,687.003,662.025
				c73.739,728.97,487.638,1002.851,1192.983,661.789V1.662h-367.014c-918.169,705.538-1505.1,636.851-1698.006,0H3780.475
				C3837.815,113.418,3884.027,244.393,3915.857,397.508"/>
		</defs>
		<clipPath id="SVGID_00000008133349268757765070000017093864477063678619_">
			<use xlink:href="#SVGID_00000138548866437749509930000010470879093337792675_"  style="overflow:visible;"/>
		</clipPath>
		
			<linearGradient id="SVGID_00000056426931687402868310000007786774180728836509_" gradientUnits="userSpaceOnUse" x1="8291.123" y1="3533.1765" x2="3071.7136" y2="-612.6727">
			<stop  offset="0" style="stop-color:#B5FFFF"/>
			<stop  offset="0.36" style="stop-color:#B5FFFF"/>
			<stop  offset="1" style="stop-color:#2A919B"/>
		</linearGradient>
		
			<rect x="3780.475" y="1.662" style="clip-path:url(#SVGID_00000008133349268757765070000017093864477063678619_);fill:url(#SVGID_00000056426931687402868310000007786774180728836509_);" width="3218.275" height="2453.608"/>
	</g>
	<g>
		<defs>
			<path id="SVGID_00000076600709195954868750000006806047792604624004_" d="M4933.731,1.662
				c192.906,636.851,779.837,705.538,1698.006,0H4933.731z"/>
		</defs>
		<clipPath id="SVGID_00000152942914441715906380000001112646879013285781_">
			<use xlink:href="#SVGID_00000076600709195954868750000006806047792604624004_"  style="overflow:visible;"/>
		</clipPath>
		
			<linearGradient id="SVGID_00000034088125220260866040000005031622950560235688_" gradientUnits="userSpaceOnUse" x1="7101.7231" y1="1020.9872" x2="4318.1855" y2="-385.6827">
			<stop  offset="0" style="stop-color:#B5FFFF"/>
			<stop  offset="0.31" style="stop-color:#B5FFFF"/>
			<stop  offset="1" style="stop-color:#2A919B"/>
		</linearGradient>
		
			<rect x="4933.731" y="1.662" style="clip-path:url(#SVGID_00000152942914441715906380000001112646879013285781_);fill:url(#SVGID_00000034088125220260866040000005031622950560235688_);" width="1698.006" height="705.538"/>
	</g>
	<defs>
		<filter id="Adobe_OpacityMaskFilter" filterUnits="userSpaceOnUse" x="1.661" y="1933.833" width="6997.09" height="2066.167">
			<feColorMatrix  type="matrix" values="1 0 0 0 0  0 1 0 0 0  0 0 1 0 0  0 0 0 1 0"/>
		</filter>
	</defs>
	
		<mask maskUnits="userSpaceOnUse" x="1.661" y="1933.833" width="6997.09" height="2066.167" id="SVGID_00000006680993033019540730000012723068388140599482_">
		<g style="filter:url(#Adobe_OpacityMaskFilter);">
			
				<linearGradient id="SVGID_00000119107947716018682330000013080497975408963772_" gradientUnits="userSpaceOnUse" x1="-4721.8184" y1="1635.4871" x2="-3808.1013" y2="5827.6128" gradientTransform="matrix(1 0 0 1 7512.001 -1926.15)">
				<stop  offset="0" style="stop-color:#FFFFFF"/>
				<stop  offset="1" style="stop-color:#000000"/>
			</linearGradient>
			
				<rect x="1.661" y="1933.832" style="fill:url(#SVGID_00000119107947716018682330000013080497975408963772_);" width="6997.09" height="2066.168"/>
		</g>
	</mask>
	
		<path style="mask:url(#SVGID_00000006680993033019540730000012723068388140599482_);fill-rule:evenodd;clip-rule:evenodd;fill:#6FBCCB;" d="
		M1035.665,2364.202C257.151,2969.702,1.661,4000,1.661,4000h2671.52h2879.461H6998.75V2809.131
		c-366.944,306.385-816.486,337.797-1498.458,153.203c-389.792-105.509-855.514-281.584-1425.15-517.217
		c-173.196-71.643-356.004-148.794-549.197-231.138c-176.339-75.162-344.471-133.659-504.731-177.303
		C2139.51,1796.563,1496.11,2006.084,1035.665,2364.202"/>
</g>
</svg>
