<svg width="228" height="83" viewBox="0 0 228 83" fill="none" xmlns="http://www.w3.org/2000/svg">
<g filter="url(#filter0_d_503_1773)">
<circle cx="41.1176" cy="37.5005" r="28.6176" stroke="#1EC1C1" shape-rendering="crispEdges"/>
</g>
<g clip-path="url(#clip0_503_1773)">
<path d="M59.8003 4.5C62.0338 17.0723 25.535 37.3489 28.3026 52.9051C21.3609 45.8633 17.7013 36.7765 28.6281 24.918C39.5485 13.0659 59.8003 4.5 59.8003 4.5Z" fill="url(#paint0_linear_503_1773)"/>
<path d="M42.6149 13.677C37.6594 16.841 32.5411 20.6738 28.621 24.9246C17.7006 36.7831 21.3603 45.8635 28.2954 52.9117C24.6553 45.1368 28.901 29.4262 42.6149 13.677Z" fill="url(#paint1_linear_503_1773)"/>
<path d="M22.4347 70.5001C20.2011 57.9278 56.6934 37.6512 53.9324 22.095C60.874 29.1368 64.5337 38.2236 53.6068 50.0821C42.6865 61.9406 22.4347 70.5001 22.4347 70.5001Z" fill="url(#paint2_linear_503_1773)"/>
<path d="M39.6194 61.3297C44.5749 58.1657 49.6932 54.3393 53.6134 50.0821C64.5337 38.2236 60.8741 29.1432 53.939 22.095C57.5791 29.8699 53.3334 45.5805 39.626 61.3297H39.6194Z" fill="url(#paint3_linear_503_1773)"/>
</g>
<path d="M93.5953 19.6C93.5953 17.56 93.3153 16.06 92.7553 15.1C92.1953 14.1 91.0753 13.6 89.3953 13.6H88.1953V12.4H93.5953C95.0753 12.4 96.1753 12.6 96.8953 13C97.6553 13.36 98.1953 14.04 98.5153 15.04C98.8353 16.04 98.9953 17.56 98.9953 19.6V30.4H116.995V12.4H122.395V44.8C122.395 46.84 122.675 48.36 123.235 49.36C123.795 50.32 124.915 50.8 126.595 50.8H127.795V52H122.395C120.915 52 119.795 51.82 119.035 51.46C118.315 51.06 117.795 50.36 117.475 49.36C117.155 48.36 116.995 46.84 116.995 44.8V32.8H98.9953V52H93.5953V19.6ZM149.787 53.2C146.067 53.2 142.787 52.28 139.947 50.44C137.147 48.6 134.987 46.08 133.467 42.88C131.947 39.68 131.187 36.12 131.187 32.2C131.187 28.28 131.947 24.72 133.467 21.52C134.987 18.32 137.147 15.8 139.947 13.96C142.787 12.12 146.067 11.2 149.787 11.2C153.507 11.2 156.767 12.12 159.567 13.96C162.407 15.8 164.587 18.32 166.107 21.52C167.627 24.72 168.387 28.28 168.387 32.2C168.387 36.12 167.627 39.68 166.107 42.88C164.587 46.08 162.407 48.6 159.567 50.44C156.767 52.28 153.507 53.2 149.787 53.2ZM149.787 50.8C152.387 50.8 154.627 50.04 156.507 48.52C158.427 47 159.887 44.86 160.887 42.1C161.887 39.3 162.387 36 162.387 32.2C162.387 28.4 161.887 25.12 160.887 22.36C159.887 19.56 158.427 17.4 156.507 15.88C154.627 14.36 152.387 13.6 149.787 13.6C147.187 13.6 144.927 14.36 143.007 15.88C141.127 17.4 139.687 19.56 138.687 22.36C137.687 25.12 137.187 28.4 137.187 32.2C137.187 36 137.687 39.3 138.687 42.1C139.687 44.86 141.127 47 143.007 48.52C144.927 50.04 147.187 50.8 149.787 50.8ZM221.602 54.7C218.722 54.7 216.482 54.26 214.882 53.38C213.282 52.5 212.142 51.14 211.462 49.3C210.822 47.42 210.502 44.92 210.502 41.8V18.7L195.502 52H194.302L178.702 18.1V52H176.302V12.4H182.002L196.402 43.6L210.502 12.4H215.902V41.8C215.902 45.52 216.362 48.4 217.282 50.44C218.242 52.48 219.682 53.5 221.602 53.5V54.7Z" fill="#0D1321"/>
<path d="M84.2921 71V62.2727H87.241C87.9256 62.2727 88.4853 62.3963 88.9199 62.6435C89.3574 62.8878 89.6813 63.2188 89.8915 63.6364C90.1018 64.054 90.2069 64.5199 90.2069 65.0341C90.2069 65.5483 90.1018 66.0156 89.8915 66.4361C89.6842 66.8565 89.3631 67.1918 88.9285 67.4418C88.4938 67.6889 87.937 67.8125 87.258 67.8125H85.1444V66.875H87.2239C87.6927 66.875 88.0691 66.794 88.3532 66.6321C88.6373 66.4702 88.8432 66.2514 88.9711 65.9759C89.1018 65.6974 89.1671 65.3835 89.1671 65.0341C89.1671 64.6847 89.1018 64.3722 88.9711 64.0966C88.8432 63.821 88.6359 63.6051 88.3489 63.4489C88.062 63.2898 87.6813 63.2102 87.2069 63.2102H85.3489V71H84.2921ZM91.7729 71V64.4545H92.7445V65.4432H92.8127C92.932 65.1193 93.1479 64.8565 93.4604 64.6548C93.7729 64.4531 94.1252 64.3523 94.5173 64.3523C94.5911 64.3523 94.6834 64.3537 94.7942 64.3565C94.905 64.3594 94.9888 64.3636 95.0457 64.3693V65.392C95.0116 65.3835 94.9334 65.3707 94.8113 65.3537C94.692 65.3338 94.5655 65.3239 94.432 65.3239C94.1138 65.3239 93.8298 65.3906 93.5798 65.5241C93.3326 65.6548 93.1366 65.8366 92.9917 66.0696C92.8496 66.2997 92.7786 66.5625 92.7786 66.858V71H91.7729ZM98.6976 71.1364C98.1067 71.1364 97.5883 70.9957 97.1423 70.7145C96.6991 70.4332 96.3525 70.0398 96.1025 69.5341C95.8553 69.0284 95.7317 68.4375 95.7317 67.7614C95.7317 67.0795 95.8553 66.4844 96.1025 65.9759C96.3525 65.4673 96.6991 65.0724 97.1423 64.7912C97.5883 64.5099 98.1067 64.3693 98.6976 64.3693C99.2886 64.3693 99.8056 64.5099 100.249 64.7912C100.695 65.0724 101.041 65.4673 101.289 65.9759C101.539 66.4844 101.664 67.0795 101.664 67.7614C101.664 68.4375 101.539 69.0284 101.289 69.5341C101.041 70.0398 100.695 70.4332 100.249 70.7145C99.8056 70.9957 99.2886 71.1364 98.6976 71.1364ZM98.6976 70.233C99.1465 70.233 99.5158 70.1179 99.8056 69.8878C100.095 69.6577 100.31 69.3551 100.449 68.9801C100.588 68.6051 100.658 68.1989 100.658 67.7614C100.658 67.3239 100.588 66.9162 100.449 66.5384C100.31 66.1605 100.095 65.8551 99.8056 65.6222C99.5158 65.3892 99.1465 65.2727 98.6976 65.2727C98.2488 65.2727 97.8795 65.3892 97.5897 65.6222C97.2999 65.8551 97.0854 66.1605 96.9462 66.5384C96.807 66.9162 96.7374 67.3239 96.7374 67.7614C96.7374 68.1989 96.807 68.6051 96.9462 68.9801C97.0854 69.3551 97.2999 69.6577 97.5897 69.8878C97.8795 70.1179 98.2488 70.233 98.6976 70.233ZM106.113 64.4545V65.3068H102.585V64.4545H106.113ZM103.642 71V63.5511C103.642 63.1761 103.73 62.8636 103.906 62.6136C104.082 62.3636 104.311 62.1761 104.592 62.0511C104.873 61.9261 105.17 61.8636 105.483 61.8636C105.73 61.8636 105.932 61.8835 106.088 61.9233C106.244 61.9631 106.361 62 106.437 62.0341L106.148 62.9034C106.096 62.8864 106.025 62.8651 105.935 62.8395C105.846 62.8139 105.73 62.8011 105.585 62.8011C105.253 62.8011 105.013 62.8849 104.865 63.0526C104.72 63.2202 104.648 63.4659 104.648 63.7898V71H103.642ZM109.998 71.1364C109.367 71.1364 108.823 70.9972 108.366 70.7188C107.911 70.4375 107.56 70.0455 107.313 69.5426C107.069 69.0369 106.947 68.4489 106.947 67.7784C106.947 67.108 107.069 66.517 107.313 66.0057C107.56 65.4915 107.904 65.0909 108.344 64.804C108.787 64.5142 109.305 64.3693 109.895 64.3693C110.236 64.3693 110.573 64.4261 110.905 64.5398C111.238 64.6534 111.54 64.8381 111.813 65.0938C112.086 65.3466 112.303 65.6818 112.465 66.0994C112.627 66.517 112.708 67.0312 112.708 67.642V68.0682H107.662V67.1989H111.685C111.685 66.8295 111.611 66.5 111.464 66.2102C111.319 65.9205 111.111 65.6918 110.841 65.5241C110.574 65.3565 110.259 65.2727 109.895 65.2727C109.495 65.2727 109.148 65.3722 108.856 65.571C108.566 65.767 108.343 66.0227 108.187 66.3381C108.03 66.6534 107.952 66.9915 107.952 67.3523V67.9318C107.952 68.4261 108.037 68.8452 108.208 69.1889C108.381 69.5298 108.621 69.7898 108.928 69.9688C109.235 70.1449 109.591 70.233 109.998 70.233C110.262 70.233 110.501 70.196 110.714 70.1222C110.93 70.0455 111.116 69.9318 111.272 69.7812C111.428 69.6278 111.549 69.4375 111.634 69.2102L112.606 69.483C112.503 69.8125 112.332 70.1023 112.09 70.3523C111.849 70.5994 111.55 70.7926 111.195 70.9318C110.84 71.0682 110.441 71.1364 109.998 71.1364ZM118.874 65.9205L117.971 66.1761C117.914 66.0256 117.83 65.8793 117.719 65.7372C117.611 65.5923 117.464 65.473 117.276 65.3793C117.089 65.2855 116.849 65.2386 116.556 65.2386C116.155 65.2386 115.822 65.331 115.555 65.5156C115.29 65.6974 115.158 65.929 115.158 66.2102C115.158 66.4602 115.249 66.6577 115.431 66.8026C115.613 66.9474 115.897 67.0682 116.283 67.1648L117.255 67.4034C117.84 67.5455 118.276 67.7628 118.563 68.0554C118.85 68.3452 118.993 68.7187 118.993 69.1761C118.993 69.5511 118.886 69.8864 118.67 70.1818C118.457 70.4773 118.158 70.7102 117.775 70.8807C117.391 71.0511 116.945 71.1364 116.437 71.1364C115.769 71.1364 115.216 70.9915 114.779 70.7017C114.341 70.4119 114.064 69.9886 113.948 69.4318L114.903 69.1932C114.993 69.5455 115.165 69.8097 115.418 69.9858C115.674 70.1619 116.008 70.25 116.42 70.25C116.888 70.25 117.261 70.1506 117.536 69.9517C117.814 69.75 117.954 69.5085 117.954 69.2273C117.954 69 117.874 68.8097 117.715 68.6562C117.556 68.5 117.312 68.3835 116.982 68.3068L115.891 68.0511C115.292 67.9091 114.851 67.6889 114.57 67.3906C114.292 67.0895 114.153 66.7131 114.153 66.2614C114.153 65.892 114.256 65.5653 114.464 65.2812C114.674 64.9972 114.959 64.7741 115.32 64.6122C115.684 64.4503 116.096 64.3693 116.556 64.3693C117.204 64.3693 117.712 64.5114 118.082 64.7955C118.454 65.0795 118.718 65.4545 118.874 65.9205ZM120.507 71V64.4545H121.513V71H120.507ZM121.019 63.3636C120.823 63.3636 120.654 63.2969 120.512 63.1634C120.372 63.0298 120.303 62.8693 120.303 62.6818C120.303 62.4943 120.372 62.3338 120.512 62.2003C120.654 62.0668 120.823 62 121.019 62C121.215 62 121.382 62.0668 121.522 62.2003C121.664 62.3338 121.735 62.4943 121.735 62.6818C121.735 62.8693 121.664 63.0298 121.522 63.1634C121.382 63.2969 121.215 63.3636 121.019 63.3636ZM126.014 71.1364C125.423 71.1364 124.905 70.9957 124.459 70.7145C124.015 70.4332 123.669 70.0398 123.419 69.5341C123.172 69.0284 123.048 68.4375 123.048 67.7614C123.048 67.0795 123.172 66.4844 123.419 65.9759C123.669 65.4673 124.015 65.0724 124.459 64.7912C124.905 64.5099 125.423 64.3693 126.014 64.3693C126.605 64.3693 127.122 64.5099 127.565 64.7912C128.011 65.0724 128.358 65.4673 128.605 65.9759C128.855 66.4844 128.98 67.0795 128.98 67.7614C128.98 68.4375 128.855 69.0284 128.605 69.5341C128.358 70.0398 128.011 70.4332 127.565 70.7145C127.122 70.9957 126.605 71.1364 126.014 71.1364ZM126.014 70.233C126.463 70.233 126.832 70.1179 127.122 69.8878C127.412 69.6577 127.626 69.3551 127.765 68.9801C127.905 68.6051 127.974 68.1989 127.974 67.7614C127.974 67.3239 127.905 66.9162 127.765 66.5384C127.626 66.1605 127.412 65.8551 127.122 65.6222C126.832 65.3892 126.463 65.2727 126.014 65.2727C125.565 65.2727 125.196 65.3892 124.906 65.6222C124.616 65.8551 124.402 66.1605 124.263 66.5384C124.123 66.9162 124.054 67.3239 124.054 67.7614C124.054 68.1989 124.123 68.6051 124.263 68.9801C124.402 69.3551 124.616 69.6577 124.906 69.8878C125.196 70.1179 125.565 70.233 126.014 70.233ZM131.521 67.0625V71H130.515V64.4545H131.487V65.4773H131.572C131.725 65.1449 131.958 64.8778 132.271 64.6761C132.583 64.4716 132.987 64.3693 133.481 64.3693C133.924 64.3693 134.312 64.4602 134.644 64.642C134.977 64.821 135.235 65.0938 135.42 65.4602C135.605 65.8239 135.697 66.2841 135.697 66.8409V71H134.691V66.9091C134.691 66.3949 134.558 65.9943 134.291 65.7074C134.024 65.4176 133.657 65.2727 133.191 65.2727C132.87 65.2727 132.583 65.3423 132.33 65.4815C132.08 65.6207 131.883 65.8239 131.738 66.0909C131.593 66.358 131.521 66.6818 131.521 67.0625ZM139.461 71.1534C139.046 71.1534 138.67 71.0753 138.332 70.919C137.993 70.7599 137.725 70.5312 137.526 70.233C137.327 69.9318 137.228 69.5682 137.228 69.142C137.228 68.767 137.302 68.4631 137.449 68.2301C137.597 67.9943 137.795 67.8097 138.042 67.6761C138.289 67.5426 138.562 67.4432 138.86 67.3778C139.161 67.3097 139.464 67.2557 139.768 67.2159C140.165 67.1648 140.488 67.1264 140.735 67.1009C140.985 67.0724 141.167 67.0256 141.28 66.9602C141.397 66.8949 141.455 66.7812 141.455 66.6193V66.5852C141.455 66.1648 141.34 65.8381 141.11 65.6051C140.883 65.3722 140.537 65.2557 140.074 65.2557C139.594 65.2557 139.218 65.3608 138.945 65.571C138.672 65.7812 138.481 66.0057 138.37 66.2443L137.415 65.9034C137.586 65.5057 137.813 65.196 138.097 64.9744C138.384 64.75 138.697 64.5937 139.035 64.5057C139.376 64.4148 139.711 64.3693 140.04 64.3693C140.251 64.3693 140.492 64.3949 140.765 64.446C141.04 64.4943 141.306 64.5952 141.562 64.7486C141.82 64.902 142.035 65.1335 142.205 65.4432C142.376 65.7528 142.461 66.1676 142.461 66.6875V71H141.455V70.1136H141.404C141.336 70.2557 141.222 70.4077 141.063 70.5696C140.904 70.7315 140.692 70.8693 140.428 70.983C140.164 71.0966 139.841 71.1534 139.461 71.1534ZM139.614 70.25C140.012 70.25 140.347 70.1719 140.62 70.0156C140.895 69.8594 141.103 69.6577 141.242 69.4105C141.384 69.1634 141.455 68.9034 141.455 68.6307V67.7102C141.412 67.7614 141.319 67.8082 141.174 67.8509C141.032 67.8906 140.867 67.9261 140.68 67.9574C140.495 67.9858 140.314 68.0114 140.138 68.0341C139.965 68.054 139.824 68.071 139.716 68.0852C139.455 68.1193 139.211 68.1747 138.984 68.2514C138.759 68.3253 138.577 68.4375 138.438 68.5881C138.302 68.7358 138.234 68.9375 138.234 69.1932C138.234 69.5426 138.363 69.8068 138.621 69.9858C138.883 70.1619 139.214 70.25 139.614 70.25ZM145.302 62.2727V71H144.296V62.2727H145.302ZM149.888 71.1364C149.258 71.1364 148.714 70.9972 148.256 70.7188C147.802 70.4375 147.451 70.0455 147.204 69.5426C146.959 69.0369 146.837 68.4489 146.837 67.7784C146.837 67.108 146.959 66.517 147.204 66.0057C147.451 65.4915 147.795 65.0909 148.235 64.804C148.678 64.5142 149.195 64.3693 149.786 64.3693C150.127 64.3693 150.464 64.4261 150.796 64.5398C151.128 64.6534 151.431 64.8381 151.704 65.0938C151.976 65.3466 152.194 65.6818 152.356 66.0994C152.518 66.517 152.599 67.0312 152.599 67.642V68.0682H147.553V67.1989H151.576C151.576 66.8295 151.502 66.5 151.354 66.2102C151.209 65.9205 151.002 65.6918 150.732 65.5241C150.465 65.3565 150.15 65.2727 149.786 65.2727C149.386 65.2727 149.039 65.3722 148.746 65.571C148.457 65.767 148.234 66.0227 148.077 66.3381C147.921 66.6534 147.843 66.9915 147.843 67.3523V67.9318C147.843 68.4261 147.928 68.8452 148.099 69.1889C148.272 69.5298 148.512 69.7898 148.819 69.9688C149.126 70.1449 149.482 70.233 149.888 70.233C150.153 70.233 150.391 70.196 150.604 70.1222C150.82 70.0455 151.006 69.9318 151.162 69.7812C151.319 69.6278 151.439 69.4375 151.525 69.2102L152.496 69.483C152.394 69.8125 152.222 70.1023 151.981 70.3523C151.739 70.5994 151.441 70.7926 151.086 70.9318C150.731 71.0682 150.332 71.1364 149.888 71.1364ZM158.765 65.9205L157.861 66.1761C157.805 66.0256 157.721 65.8793 157.61 65.7372C157.502 65.5923 157.354 65.473 157.167 65.3793C156.979 65.2855 156.739 65.2386 156.447 65.2386C156.046 65.2386 155.712 65.331 155.445 65.5156C155.181 65.6974 155.049 65.929 155.049 66.2102C155.049 66.4602 155.14 66.6577 155.322 66.8026C155.503 66.9474 155.787 67.0682 156.174 67.1648L157.145 67.4034C157.731 67.5455 158.167 67.7628 158.454 68.0554C158.741 68.3452 158.884 68.7187 158.884 69.1761C158.884 69.5511 158.776 69.8864 158.56 70.1818C158.347 70.4773 158.049 70.7102 157.665 70.8807C157.282 71.0511 156.836 71.1364 156.327 71.1364C155.66 71.1364 155.107 70.9915 154.67 70.7017C154.232 70.4119 153.955 69.9886 153.839 69.4318L154.793 69.1932C154.884 69.5455 155.056 69.8097 155.309 69.9858C155.564 70.1619 155.898 70.25 156.31 70.25C156.779 70.25 157.151 70.1506 157.427 69.9517C157.705 69.75 157.844 69.5085 157.844 69.2273C157.844 69 157.765 68.8097 157.606 68.6562C157.447 68.5 157.202 68.3835 156.873 68.3068L155.782 68.0511C155.182 67.9091 154.742 67.6889 154.461 67.3906C154.182 67.0895 154.043 66.7131 154.043 66.2614C154.043 65.892 154.147 65.5653 154.354 65.2812C154.564 64.9972 154.85 64.7741 155.211 64.6122C155.574 64.4503 155.986 64.3693 156.447 64.3693C157.094 64.3693 157.603 64.5114 157.972 64.7955C158.344 65.0795 158.609 65.4545 158.765 65.9205ZM166.517 71.1364C165.887 71.1364 165.343 70.9972 164.885 70.7188C164.431 70.4375 164.08 70.0455 163.833 69.5426C163.588 69.0369 163.466 68.4489 163.466 67.7784C163.466 67.108 163.588 66.517 163.833 66.0057C164.08 65.4915 164.424 65.0909 164.864 64.804C165.307 64.5142 165.824 64.3693 166.415 64.3693C166.756 64.3693 167.093 64.4261 167.425 64.5398C167.757 64.6534 168.06 64.8381 168.333 65.0938C168.605 65.3466 168.823 65.6818 168.985 66.0994C169.147 66.517 169.227 67.0312 169.227 67.642V68.0682H164.182V67.1989H168.205C168.205 66.8295 168.131 66.5 167.983 66.2102C167.838 65.9205 167.631 65.6918 167.361 65.5241C167.094 65.3565 166.779 65.2727 166.415 65.2727C166.014 65.2727 165.668 65.3722 165.375 65.571C165.085 65.767 164.862 66.0227 164.706 66.3381C164.55 66.6534 164.472 66.9915 164.472 67.3523V67.9318C164.472 68.4261 164.557 68.8452 164.727 69.1889C164.901 69.5298 165.141 69.7898 165.448 69.9688C165.754 70.1449 166.111 70.233 166.517 70.233C166.781 70.233 167.02 70.196 167.233 70.1222C167.449 70.0455 167.635 69.9318 167.791 69.7812C167.948 69.6278 168.068 69.4375 168.154 69.2102L169.125 69.483C169.023 69.8125 168.851 70.1023 168.61 70.3523C168.368 70.5994 168.07 70.7926 167.715 70.9318C167.36 71.0682 166.96 71.1364 166.517 71.1364ZM171.763 67.0625V71H170.757V64.4545H171.729V65.4773H171.814C171.968 65.1449 172.2 64.8778 172.513 64.6761C172.825 64.4716 173.229 64.3693 173.723 64.3693C174.166 64.3693 174.554 64.4602 174.887 64.642C175.219 64.821 175.477 65.0938 175.662 65.4602C175.847 65.8239 175.939 66.2841 175.939 66.8409V71H174.933V66.9091C174.933 66.3949 174.8 65.9943 174.533 65.7074C174.266 65.4176 173.899 65.2727 173.433 65.2727C173.112 65.2727 172.825 65.3423 172.573 65.4815C172.323 65.6207 172.125 65.8239 171.98 66.0909C171.835 66.358 171.763 66.6818 171.763 67.0625ZM186.061 64.4545C186.01 64.0227 185.802 63.6875 185.439 63.4489C185.075 63.2102 184.629 63.0909 184.101 63.0909C183.714 63.0909 183.376 63.1534 183.086 63.2784C182.8 63.4034 182.575 63.5753 182.413 63.794C182.254 64.0128 182.175 64.2614 182.175 64.5398C182.175 64.7727 182.23 64.973 182.341 65.1406C182.454 65.3054 182.599 65.4432 182.775 65.554C182.952 65.6619 183.136 65.7514 183.329 65.8224C183.523 65.8906 183.7 65.946 183.862 65.9886L184.748 66.2273C184.976 66.2869 185.229 66.3693 185.507 66.4744C185.788 66.5795 186.057 66.723 186.312 66.9048C186.571 67.0838 186.784 67.3139 186.952 67.5952C187.119 67.8764 187.203 68.2216 187.203 68.6307C187.203 69.1023 187.079 69.5284 186.832 69.9091C186.588 70.2898 186.23 70.5923 185.758 70.8168C185.29 71.0412 184.72 71.1534 184.05 71.1534C183.425 71.1534 182.883 71.0526 182.426 70.8509C181.971 70.6491 181.613 70.3679 181.352 70.0071C181.094 69.6463 180.947 69.2273 180.913 68.75H182.004C182.033 69.0795 182.143 69.3523 182.336 69.5682C182.533 69.7812 182.78 69.9403 183.078 70.0455C183.379 70.1477 183.703 70.1989 184.05 70.1989C184.453 70.1989 184.815 70.1335 185.136 70.0028C185.457 69.8693 185.711 69.6847 185.899 69.4489C186.086 69.2102 186.18 68.9318 186.18 68.6136C186.18 68.3239 186.099 68.0881 185.937 67.9062C185.775 67.7244 185.562 67.5767 185.298 67.4631C185.034 67.3494 184.748 67.25 184.442 67.1648L183.368 66.858C182.686 66.6619 182.146 66.3821 181.748 66.0185C181.351 65.6548 181.152 65.179 181.152 64.5909C181.152 64.1023 181.284 63.6761 181.548 63.3125C181.815 62.946 182.173 62.6619 182.622 62.4602C183.074 62.2557 183.578 62.1534 184.135 62.1534C184.697 62.1534 185.197 62.2543 185.635 62.456C186.072 62.6548 186.419 62.9276 186.675 63.2741C186.933 63.6207 187.069 64.0142 187.084 64.4545H186.061ZM191.549 71.1364C190.918 71.1364 190.374 70.9972 189.916 70.7188C189.462 70.4375 189.111 70.0455 188.864 69.5426C188.62 69.0369 188.497 68.4489 188.497 67.7784C188.497 67.108 188.62 66.517 188.864 66.0057C189.111 65.4915 189.455 65.0909 189.895 64.804C190.338 64.5142 190.855 64.3693 191.446 64.3693C191.787 64.3693 192.124 64.4261 192.456 64.5398C192.789 64.6534 193.091 64.8381 193.364 65.0938C193.637 65.3466 193.854 65.6818 194.016 66.0994C194.178 66.517 194.259 67.0312 194.259 67.642V68.0682H189.213V67.1989H193.236C193.236 66.8295 193.162 66.5 193.014 66.2102C192.87 65.9205 192.662 65.6918 192.392 65.5241C192.125 65.3565 191.81 65.2727 191.446 65.2727C191.046 65.2727 190.699 65.3722 190.406 65.571C190.117 65.767 189.894 66.0227 189.737 66.3381C189.581 66.6534 189.503 66.9915 189.503 67.3523V67.9318C189.503 68.4261 189.588 68.8452 189.759 69.1889C189.932 69.5298 190.172 69.7898 190.479 69.9688C190.786 70.1449 191.142 70.233 191.549 70.233C191.813 70.233 192.051 70.196 192.264 70.1222C192.48 70.0455 192.666 69.9318 192.823 69.7812C192.979 69.6278 193.1 69.4375 193.185 69.2102L194.156 69.483C194.054 69.8125 193.882 70.1023 193.641 70.3523C193.399 70.5994 193.101 70.7926 192.746 70.9318C192.391 71.0682 191.992 71.1364 191.549 71.1364ZM198.431 73.5909C197.945 73.5909 197.527 73.5284 197.178 73.4034C196.828 73.2812 196.537 73.1193 196.304 72.9176C196.074 72.7188 195.891 72.5057 195.754 72.2784L196.556 71.7159C196.647 71.8352 196.762 71.9716 196.901 72.125C197.04 72.2812 197.23 72.4162 197.472 72.5298C197.716 72.6463 198.036 72.7045 198.431 72.7045C198.959 72.7045 199.395 72.5767 199.739 72.321C200.083 72.0653 200.254 71.6648 200.254 71.1193V69.7898H200.169C200.095 69.9091 199.99 70.0568 199.854 70.233C199.72 70.4062 199.527 70.5611 199.274 70.6974C199.024 70.831 198.686 70.8977 198.26 70.8977C197.732 70.8977 197.257 70.7727 196.837 70.5227C196.419 70.2727 196.088 69.9091 195.844 69.4318C195.602 68.9545 195.482 68.375 195.482 67.6932C195.482 67.0227 195.6 66.4389 195.835 65.9418C196.071 65.4418 196.399 65.0554 196.82 64.7827C197.24 64.5071 197.726 64.3693 198.277 64.3693C198.703 64.3693 199.041 64.4403 199.291 64.5824C199.544 64.7216 199.737 64.8807 199.871 65.0597C200.007 65.2358 200.112 65.3807 200.186 65.4943H200.289V64.4545H201.26V71.1875C201.26 71.75 201.132 72.2074 200.877 72.5597C200.624 72.9148 200.283 73.1747 199.854 73.3395C199.428 73.5071 198.953 73.5909 198.431 73.5909ZM198.397 69.9943C198.8 69.9943 199.141 69.902 199.419 69.7173C199.698 69.5327 199.909 69.267 200.054 68.9205C200.199 68.5739 200.272 68.1591 200.272 67.6761C200.272 67.2045 200.2 66.7884 200.058 66.4276C199.916 66.0668 199.706 65.7841 199.428 65.5795C199.149 65.375 198.806 65.2727 198.397 65.2727C197.97 65.2727 197.615 65.3807 197.331 65.5966C197.05 65.8125 196.838 66.1023 196.696 66.4659C196.557 66.8295 196.487 67.233 196.487 67.6761C196.487 68.1307 196.558 68.5327 196.7 68.8821C196.845 69.2287 197.058 69.5014 197.34 69.7003C197.624 69.8963 197.976 69.9943 198.397 69.9943ZM207.226 68.3239V64.4545H208.232V71H207.226V69.892H207.158C207.004 70.2244 206.766 70.5071 206.442 70.7401C206.118 70.9702 205.709 71.0852 205.215 71.0852C204.806 71.0852 204.442 70.9957 204.124 70.8168C203.806 70.6349 203.556 70.3622 203.374 69.9986C203.192 69.6321 203.101 69.1705 203.101 68.6136V64.4545H204.107V68.5455C204.107 69.0227 204.24 69.4034 204.507 69.6875C204.777 69.9716 205.121 70.1136 205.539 70.1136C205.789 70.1136 206.043 70.0497 206.301 69.9219C206.563 69.794 206.781 69.598 206.958 69.3338C207.137 69.0696 207.226 68.733 207.226 68.3239ZM210.074 71V64.4545H211.045V65.4432H211.113C211.233 65.1193 211.449 64.8565 211.761 64.6548C212.074 64.4531 212.426 64.3523 212.818 64.3523C212.892 64.3523 212.984 64.3537 213.095 64.3565C213.206 64.3594 213.29 64.3636 213.346 64.3693V65.392C213.312 65.3835 213.234 65.3707 213.112 65.3537C212.993 65.3338 212.866 65.3239 212.733 65.3239C212.415 65.3239 212.131 65.3906 211.881 65.5241C211.633 65.6548 211.437 65.8366 211.292 66.0696C211.15 66.2997 211.079 66.5625 211.079 66.858V71H210.074ZM216.998 71.1364C216.408 71.1364 215.889 70.9957 215.443 70.7145C215 70.4332 214.653 70.0398 214.403 69.5341C214.156 69.0284 214.033 68.4375 214.033 67.7614C214.033 67.0795 214.156 66.4844 214.403 65.9759C214.653 65.4673 215 65.0724 215.443 64.7912C215.889 64.5099 216.408 64.3693 216.998 64.3693C217.589 64.3693 218.106 64.5099 218.55 64.7912C218.996 65.0724 219.342 65.4673 219.589 65.9759C219.839 66.4844 219.964 67.0795 219.964 67.7614C219.964 68.4375 219.839 69.0284 219.589 69.5341C219.342 70.0398 218.996 70.4332 218.55 70.7145C218.106 70.9957 217.589 71.1364 216.998 71.1364ZM216.998 70.233C217.447 70.233 217.817 70.1179 218.106 69.8878C218.396 69.6577 218.611 69.3551 218.75 68.9801C218.889 68.6051 218.959 68.1989 218.959 67.7614C218.959 67.3239 218.889 66.9162 218.75 66.5384C218.611 66.1605 218.396 65.8551 218.106 65.6222C217.817 65.3892 217.447 65.2727 216.998 65.2727C216.55 65.2727 216.18 65.3892 215.89 65.6222C215.601 65.8551 215.386 66.1605 215.247 66.5384C215.108 66.9162 215.038 67.3239 215.038 67.7614C215.038 68.1989 215.108 68.6051 215.247 68.9801C215.386 69.3551 215.601 69.6577 215.89 69.8878C216.18 70.1179 216.55 70.233 216.998 70.233ZM226.136 65.9205L225.232 66.1761C225.176 66.0256 225.092 65.8793 224.981 65.7372C224.873 65.5923 224.725 65.473 224.538 65.3793C224.35 65.2855 224.11 65.2386 223.818 65.2386C223.417 65.2386 223.083 65.331 222.816 65.5156C222.552 65.6974 222.42 65.929 222.42 66.2102C222.42 66.4602 222.511 66.6577 222.693 66.8026C222.874 66.9474 223.159 67.0682 223.545 67.1648L224.517 67.4034C225.102 67.5455 225.538 67.7628 225.825 68.0554C226.112 68.3452 226.255 68.7187 226.255 69.1761C226.255 69.5511 226.147 69.8864 225.931 70.1818C225.718 70.4773 225.42 70.7102 225.036 70.8807C224.653 71.0511 224.207 71.1364 223.698 71.1364C223.031 71.1364 222.478 70.9915 222.041 70.7017C221.603 70.4119 221.326 69.9886 221.21 69.4318L222.164 69.1932C222.255 69.5455 222.427 69.8097 222.68 69.9858C222.936 70.1619 223.269 70.25 223.681 70.25C224.15 70.25 224.522 70.1506 224.798 69.9517C225.076 69.75 225.215 69.5085 225.215 69.2273C225.215 69 225.136 68.8097 224.977 68.6562C224.818 68.5 224.573 68.3835 224.244 68.3068L223.153 68.0511C222.553 67.9091 222.113 67.6889 221.832 67.3906C221.553 67.0895 221.414 66.7131 221.414 66.2614C221.414 65.892 221.518 65.5653 221.725 65.2812C221.936 64.9972 222.221 64.7741 222.582 64.6122C222.946 64.4503 223.357 64.3693 223.818 64.3693C224.465 64.3693 224.974 64.5114 225.343 64.7955C225.715 65.0795 225.98 65.4545 226.136 65.9205Z" fill="#0D1321"/>
<defs>
<filter id="filter0_d_503_1773" x="0" y="0.382812" width="82.2353" height="82.2354" filterUnits="userSpaceOnUse" color-interpolation-filters="sRGB">
<feFlood flood-opacity="0" result="BackgroundImageFix"/>
<feColorMatrix in="SourceAlpha" type="matrix" values="0 0 0 0 0 0 0 0 0 0 0 0 0 0 0 0 0 0 127 0" result="hardAlpha"/>
<feOffset dy="4"/>
<feGaussianBlur stdDeviation="6"/>
<feComposite in2="hardAlpha" operator="out"/>
<feColorMatrix type="matrix" values="0 0 0 0 0 0 0 0 0 0 0 0 0 0 0 0 0 0 0.25 0"/>
<feBlend mode="normal" in2="BackgroundImageFix" result="effect1_dropShadow_503_1773"/>
<feBlend mode="normal" in="SourceGraphic" in2="effect1_dropShadow_503_1773" result="shape"/>
</filter>
<linearGradient id="paint0_linear_503_1773" x1="58.8621" y1="30.7565" x2="28.1265" y2="26.3825" gradientUnits="userSpaceOnUse">
<stop offset="0.35" stop-color="#1DC1C1"/>
<stop offset="0.44" stop-color="#1DBABC"/>
<stop offset="0.58" stop-color="#20A6B1"/>
<stop offset="0.75" stop-color="#24869F"/>
<stop offset="0.94" stop-color="#295A85"/>
<stop offset="1" stop-color="#2C4A7C"/>
</linearGradient>
<linearGradient id="paint1_linear_503_1773" x1="10.9622" y1="68.4119" x2="36.7212" y2="22.5532" gradientUnits="userSpaceOnUse">
<stop stop-color="#2C4A7C"/>
<stop offset="0.1" stop-color="#295A85"/>
<stop offset="0.38" stop-color="#24869F"/>
<stop offset="0.64" stop-color="#20A6B1"/>
<stop offset="0.85" stop-color="#1DBABC"/>
<stop offset="1" stop-color="#1DC1C1"/>
</linearGradient>
<linearGradient id="paint2_linear_503_1773" x1="23.3645" y1="44.2455" x2="54.1047" y2="48.624" gradientUnits="userSpaceOnUse">
<stop offset="0.35" stop-color="#1DC1C1"/>
<stop offset="0.44" stop-color="#1DBABC"/>
<stop offset="0.58" stop-color="#20A6B1"/>
<stop offset="0.75" stop-color="#24869F"/>
<stop offset="0.94" stop-color="#295A85"/>
<stop offset="1" stop-color="#2C4A7C"/>
</linearGradient>
<linearGradient id="paint3_linear_503_1773" x1="71.2637" y1="6.59027" x2="45.5048" y2="52.449" gradientUnits="userSpaceOnUse">
<stop stop-color="#2C4A7C"/>
<stop offset="0.1" stop-color="#295A85"/>
<stop offset="0.38" stop-color="#24869F"/>
<stop offset="0.64" stop-color="#20A6B1"/>
<stop offset="0.85" stop-color="#1DBABC"/>
<stop offset="1" stop-color="#1DC1C1"/>
</linearGradient>
<clipPath id="clip0_503_1773">
<rect width="38.8235" height="66" fill="white" transform="translate(21.7054 4.5)"/>
</clipPath>
</defs>
</svg>
